<?xml version="1.0" standalone="no"?>
<svg xmlns:xlink="http://www.w3.org/1999/xlink" id="wave" style="transform:rotate(0deg); transition: 0.3s" viewBox="0 0 1440 360" version="1.1" xmlns="http://www.w3.org/2000/svg"><defs><linearGradient id="sw-gradient-0" x1="0" x2="0" y1="1" y2="0"><stop stop-color="rgba(255, 5.129, 5.129, 1)" offset="0%"/><stop stop-color="rgba(66.347, 0.96, 0.96, 1)" offset="100%"/></linearGradient></defs><path style="transform:translate(0, 0px); opacity:1" fill="url(#sw-gradient-0)" d="M0,0L16,12C32,24,64,48,96,90C128,132,160,192,192,228C224,264,256,276,288,252C320,228,352,168,384,126C416,84,448,60,480,54C512,48,544,60,576,78C608,96,640,120,672,162C704,204,736,264,768,240C800,216,832,108,864,102C896,96,928,192,960,240C992,288,1024,288,1056,252C1088,216,1120,144,1152,102C1184,60,1216,48,1248,60C1280,72,1312,108,1344,108C1376,108,1408,72,1440,96C1472,120,1504,204,1536,198C1568,192,1600,96,1632,60C1664,24,1696,48,1728,54C1760,60,1792,48,1824,66C1856,84,1888,132,1920,144C1952,156,1984,132,2016,150C2048,168,2080,228,2112,210C2144,192,2176,96,2208,72C2240,48,2272,96,2288,120L2304,144L2304,360L2288,360C2272,360,2240,360,2208,360C2176,360,2144,360,2112,360C2080,360,2048,360,2016,360C1984,360,1952,360,1920,360C1888,360,1856,360,1824,360C1792,360,1760,360,1728,360C1696,360,1664,360,1632,360C1600,360,1568,360,1536,360C1504,360,1472,360,1440,360C1408,360,1376,360,1344,360C1312,360,1280,360,1248,360C1216,360,1184,360,1152,360C1120,360,1088,360,1056,360C1024,360,992,360,960,360C928,360,896,360,864,360C832,360,800,360,768,360C736,360,704,360,672,360C640,360,608,360,576,360C544,360,512,360,480,360C448,360,416,360,384,360C352,360,320,360,288,360C256,360,224,360,192,360C160,360,128,360,96,360C64,360,32,360,16,360L0,360Z"/></svg>